<svg xmlns="http://www.w3.org/2000/svg" id="Ebene_1" data-name="Ebene 1" viewBox="0 0 280 58.9"><defs><style>.cls-1{fill:#fff;}</style></defs><path class="cls-1" d="M153.4,53.9c0,2-.1,2.5-.6,3a2,2,0,0,1-2.8.1l-.1-.1c-.5-.5-.6-1.1-.6-3s.1-2.5.6-3a2,2,0,0,1,2.8-.1l.1.1c.6.6.6,1.1.6,3m1.5,0c0-1.9,0-2.9-.9-3.9a3.62,3.62,0,0,0-5.1,0c-1,1-.9,2-.9,3.9s0,2.9.9,3.9a3.62,3.62,0,0,0,5.1,0c1-1,.9-2,.9-3.9"></path><polygon class="cls-1" points="163.3 50.4 163.3 49.1 157.1 49.1 157.1 58.8 158.6 58.8 158.6 54.7 162.6 54.7 162.6 53.4 158.6 53.4 158.6 50.4 163.3 50.4"></polygon><polygon class="cls-1" points="174 50.4 174 49.1 167.2 49.1 167.2 50.4 169.9 50.4 169.9 58.8 171.4 58.8 171.4 50.4 174 50.4"></polygon><polygon class="cls-1" points="181.4 58.8 181.4 57.5 176.6 57.5 176.6 54.6 180.7 54.6 180.7 53.2 176.6 53.2 176.6 50.4 181.4 50.4 181.4 49.1 175.1 49.1 175.1 58.8 181.4 58.8"></polygon><path class="cls-1" d="M189.3,55.9h-1.5a2,2,0,0,1-2,1.7,1.82,1.82,0,0,1-1.4-.6c-.5-.5-.6-1.1-.6-3s.1-2.5.6-3a1.93,1.93,0,0,1,2.8,0,2.38,2.38,0,0,1,.6,1.1h1.5a3.32,3.32,0,0,0-3.5-3,3.54,3.54,0,0,0-2.6,1c-1,1-.9,2-.9,3.9s0,2.9.9,3.9a3.54,3.54,0,0,0,2.6,1,3.47,3.47,0,0,0,3.5-3"></path><polygon class="cls-1" points="197.6 58.8 197.6 49.1 196.1 49.1 196.1 53.2 192.2 53.2 192.2 49.1 190.7 49.1 190.7 58.8 192.2 58.8 192.2 54.6 196.1 54.6 196.1 58.8 197.6 58.8"></polygon><polygon class="cls-1" points="207.1 58.8 207.1 49.1 205.7 49.1 205.7 55.9 201.2 49.1 199.9 49.1 199.9 58.8 201.3 58.8 201.3 52 205.8 58.8 207.1 58.8"></polygon><path class="cls-1" d="M214.3,53.9c0,2-.1,2.5-.6,3a2,2,0,0,1-2.8.1l-.1-.1c-.5-.5-.6-1.1-.6-3s.1-2.5.6-3a2,2,0,0,1,2.8-.1l.1.1c.5.6.6,1.1.6,3m1.5,0c0-1.9,0-2.9-.9-3.9a3.62,3.62,0,0,0-5.1,0c-1,1-.9,2-.9,3.9s0,2.9.9,3.9a3.62,3.62,0,0,0,5.1,0c.9-1,.9-2,.9-3.9"></path><polygon class="cls-1" points="223.4 58.8 223.4 57.5 218.7 57.5 218.7 49.1 217.3 49.1 217.3 58.8 223.4 58.8"></polygon><path class="cls-1" d="M229.4,53.9c0,2-.1,2.5-.6,3a2,2,0,0,1-2.8.1l-.1-.1c-.5-.5-.6-1.1-.6-3s.1-2.5.6-3a2,2,0,0,1,2.8-.1l.1.1c.5.6.6,1.1.6,3m1.5,0c0-1.9,0-2.9-.9-3.9a3.62,3.62,0,0,0-5.1,0c-1,1-.9,2-.9,3.9s0,2.9.9,3.9a3.62,3.62,0,0,0,5.1,0c1-1,.9-2,.9-3.9"></path><path class="cls-1" d="M239.5,55V53.5H236v1.2h2.1v.5a2,2,0,0,1-.5,1.5,2.36,2.36,0,0,1-1.6.7,1.82,1.82,0,0,1-1.4-.6c-.5-.5-.6-1.1-.6-3s.1-2.5.6-3a2,2,0,0,1,1.4-.6,2,2,0,0,1,2,1.7h1.5a3.38,3.38,0,0,0-3.5-3,3.54,3.54,0,0,0-2.6,1c-1,1-.9,2-.9,3.9s0,2.9.9,3.9a3.65,3.65,0,0,0,5.2-.1,3.74,3.74,0,0,0,.9-2.6"></path><polygon class="cls-1" points="247.4 49.1 245.9 49.1 243.8 53.4 241.8 49.1 240.2 49.1 243.1 54.8 243.1 58.8 244.6 58.8 244.6 54.8 247.4 49.1"></polygon><path class="cls-1" d="M152.4,44.4h-1.7l.9-2.6Zm3.5,3.5-3.5-9.7h-1.8L147,47.9h2.5l.5-1.5h3l.4,1.4,2.5.1Z"></path><path class="cls-1" d="M164,44.4V38.1h-2.4v6.3a1.24,1.24,0,0,1-1.1,1.4h-.2a1.24,1.24,0,0,1-1.3-1.2V38.2h-2.4v6.2a3.76,3.76,0,0,0,3.7,3.7,3.69,3.69,0,0,0,3.7-3.7h0"></path><path class="cls-1" d="M172.4,44.9a2.7,2.7,0,0,0-.7-2.1,2.73,2.73,0,0,0-1.9-.8l-1.2-.2a1.08,1.08,0,0,1-.7-.3.76.76,0,0,1-.2-.5.9.9,0,0,1,1.1-.9h.1a2,2,0,0,1,1.8.6l1.5-1.5a4.43,4.43,0,0,0-3.3-1.1c-2.2,0-3.5,1.3-3.5,3.1a3.06,3.06,0,0,0,.7,2,3.38,3.38,0,0,0,1.9.9l1.2.2a.71.71,0,0,1,.6.3,1.42,1.42,0,0,1,.2.6c0,.6-.4.9-1.4.9a2.93,2.93,0,0,1-2.2-.7l-1.5,1.5a5,5,0,0,0,3.7,1.3c2.1-.2,3.8-1.3,3.8-3.3"></path><polygon class="cls-1" points="180.6 40.3 180.6 38.2 173.4 38.2 173.4 40.3 175.8 40.3 175.8 47.9 178.2 47.9 178.2 40.3 180.6 40.3"></polygon><path class="cls-1" d="M186.7,41.3a.94.94,0,0,1-1,1h-1.4v-2h1.4a1,1,0,0,1,1,1m2.9,6.6-2.1-4a2.85,2.85,0,0,0,1.6-2.5,3.12,3.12,0,0,0-3.1-3.1h-4V48h2.4V44.4h.8l1.7,3.6,2.7-.1Z"></path><rect class="cls-1" x="190.7" y="38.2" width="2.4" height="9.7"></rect><path class="cls-1" d="M199.3,44.4h-1.7l.9-2.6Zm3.5,3.5-3.5-9.7h-1.8L194,47.9h2.5l.5-1.4h3l.4,1.4Z"></path><polygon class="cls-1" points="211.3 47.9 211.3 38.2 208.9 38.2 208.9 43.1 205.8 38.2 203.7 38.2 203.7 47.9 206.1 47.9 206.1 43 209.2 47.9 211.3 47.9"></polygon><rect class="cls-1" x="216.5" y="38.2" width="1.5" height="9.7"></rect><polygon class="cls-1" points="227.7 47.9 227.7 38.2 226.2 38.2 226.2 45 221.7 38.2 220.4 38.2 220.4 47.9 221.9 47.9 221.9 41.1 226.3 47.9 227.7 47.9"></polygon><path class="cls-1" d="M236.1,45.1a2.44,2.44,0,0,0-.8-2,2.87,2.87,0,0,0-1.8-.7l-1.1-.2a1.61,1.61,0,0,1-1.1-.5,1.49,1.49,0,0,1-.4-.9,1.56,1.56,0,0,1,1.6-1.5h.1a2.78,2.78,0,0,1,2.1.8l.9-.9a3.77,3.77,0,0,0-3-1.1c-2,0-3.2,1.2-3.2,2.8a2.27,2.27,0,0,0,.7,1.8,4.17,4.17,0,0,0,1.8.8l1.1.2a2.1,2.1,0,0,1,1.1.4,1.28,1.28,0,0,1,.4,1c0,.9-.7,1.5-2,1.5a3.38,3.38,0,0,1-2.5-.9l-1,1a4.44,4.44,0,0,0,3.4,1.3c2.2,0,3.7-1,3.7-2.9"></path><polygon class="cls-1" points="244.1 39.5 244.1 38.2 237.3 38.2 237.3 39.5 239.9 39.5 239.9 47.9 241.4 47.9 241.4 39.5 244.1 39.5"></polygon><rect class="cls-1" x="245.8" y="38.2" width="1.5" height="9.7"></rect><polygon class="cls-1" points="255.7 39.5 255.7 38.2 248.9 38.2 248.9 39.5 251.6 39.5 251.6 47.9 253 47.9 253 39.5 255.7 39.5"></polygon><path class="cls-1" d="M264.1,44.6V38.2h-1.5v6.4a2,2,0,1,1-4,0V38.2h-1.5v6.4a3.54,3.54,0,0,0,3.5,3.5,3.48,3.48,0,0,0,3.5-3.5"></path><polygon class="cls-1" points="272.3 39.5 272.3 38.2 265.5 38.2 265.5 39.5 268.1 39.5 268.1 47.9 269.6 47.9 269.6 39.5 272.3 39.5"></polygon><polygon class="cls-1" points="280 47.9 280 46.6 275.3 46.6 275.3 43.7 279.3 43.7 279.3 42.3 275.3 42.3 275.3 39.5 280 39.5 280 38.2 273.8 38.2 273.8 47.9 280 47.9"></polygon><polygon class="cls-1" points="148.3 17.9 148.3 0 101.8 0 101.8 17.9 115.7 17.9 115.7 58.8 134.4 58.8 134.4 17.9 148.3 17.9"></polygon><rect class="cls-1" x="79.7" width="18.7" height="58.8"></rect><polygon class="cls-1" points="58.8 0 0 58.8 24.1 58.8 57.5 25.4 57.5 58.8 76.2 58.8 76.2 0 58.8 0"></polygon></svg>