<?xml version="1.0" encoding="UTF-8" standalone="no"?>
<svg
   viewBox="0 0 242 179.76238"
   height="179.76237"
   width="242"
   xml:space="preserve"
   id="svg2"
   version="1.1"
   sodipodi:docname="logo_withoutText.svg"
   inkscape:version="1.3.2 (091e20ef0f, 2023-11-25)"
   xmlns:inkscape="http://www.inkscape.org/namespaces/inkscape"
   xmlns:sodipodi="http://sodipodi.sourceforge.net/DTD/sodipodi-0.dtd"
   xmlns="http://www.w3.org/2000/svg"
   xmlns:svg="http://www.w3.org/2000/svg"
   xmlns:rdf="http://www.w3.org/1999/02/22-rdf-syntax-ns#"
   xmlns:cc="http://creativecommons.org/ns#"
   xmlns:dc="http://purl.org/dc/elements/1.1/"><sodipodi:namedview
     id="namedview908"
     pagecolor="#ffffff"
     bordercolor="#666666"
     borderopacity="1.0"
     inkscape:pageshadow="2"
     inkscape:pageopacity="0.0"
     inkscape:pagecheckerboard="0"
     showgrid="false"
     inkscape:zoom="0.72114419"
     inkscape:cx="632.32847"
     inkscape:cy="182.34911"
     inkscape:window-width="1920"
     inkscape:window-height="1043"
     inkscape:window-x="0"
     inkscape:window-y="0"
     inkscape:window-maximized="1"
     inkscape:current-layer="g12"
     inkscape:showpageshadow="2"
     inkscape:deskcolor="#d1d1d1" /><metadata
     id="metadata8"><rdf:RDF><cc:Work
         rdf:about=""><dc:format>image/svg+xml</dc:format><dc:type
           rdf:resource="http://purl.org/dc/dcmitype/StillImage" /></cc:Work></rdf:RDF></metadata><defs
     id="defs6" /><g
     transform="matrix(1.3333333,0,0,-1.3333333,-475.21331,998.22585)"
     id="g10"><g
       transform="matrix(0.1,0,0,0.1,122.33899,71.364409)"
       id="g12"><path
         id="path16"
         style="fill:#369d8f;fill-opacity:1;fill-rule:nonzero;stroke:none"
         d="m 3166.16,5596.65 c -96.79,0 -175.54,78.75 -175.54,175.55 0,96.79 78.75,175.46 175.54,175.46 96.72,0 175.47,-78.67 175.47,-175.46 0,-96.8 -78.75,-175.55 -175.47,-175.55 z m 709.51,1176.4 c -152.42,0 -276.23,-123.9 -276.23,-276.16 0,-51.27 14.07,-99.11 38.4,-140.35 l -313.88,-313.96 c -46.41,27.17 -100.38,42.82 -157.8,42.82 -61.53,0 -118.87,-17.89 -167.31,-48.58 l -240.36,239.02 c -24.41,-48.21 -74.41,-81.37 -132.05,-81.37 -81.59,0 -148,66.4 -148,147.99 0,81.6 66.41,147.92 148,147.92 80.32,0 145.82,-64.22 147.84,-144.02 l 115.28,-115.29 c 14.53,34.21 22.54,71.87 22.54,111.39 0,157.58 -128.16,285.66 -285.66,285.66 -157.5,0 -285.73,-128.08 -285.73,-285.66 0,-157.57 128.23,-285.73 285.73,-285.73 45.81,0 89.16,10.86 127.56,30.17 l 147.54,-147.47 c -30.77,-48.43 -48.66,-105.77 -48.66,-167.23 0,-172.77 140.51,-313.28 313.28,-313.28 172.7,0 313.21,140.51 313.21,313.28 0,65.42 -20.14,126.21 -54.57,176.44 l 417.55,413.88 c -60.41,14.97 -105.17,69.47 -105.17,134.37 0,76.36 62.06,138.42 138.49,138.42 76.28,0 138.33,-62.06 138.33,-138.42 0,-52.62 -29.49,-98.43 -72.76,-121.86 L 3798.11,6231.9 c 24.63,-7.26 50.61,-11.15 77.56,-11.15 152.18,0 276.07,123.81 276.07,276.14 0,152.26 -123.89,276.16 -276.07,276.16" /><path
         id="path18"
         style="fill:#ffffff;fill-opacity:1;fill-rule:nonzero;stroke:none"
         d="m 3246.22,5776.53 c 0,-43.25 -35.05,-78.3 -78.29,-78.3 -43.25,0 -78.3,35.05 -78.3,78.3 0,43.24 35.05,78.29 78.3,78.29 43.24,0 78.29,-35.05 78.29,-78.29" /></g></g></svg>
