<?xml version="1.0" encoding="UTF-8" standalone="no"?>
<svg
   id="Layer_1"
   viewBox="0 0 242.00001 180"
   version="1.1"
   sodipodi:docname="logo_without_text_light.svg"
   width="242"
   height="180"
   inkscape:version="1.3.2 (091e20ef0f, 2023-11-25)"
   xmlns:inkscape="http://www.inkscape.org/namespaces/inkscape"
   xmlns:sodipodi="http://sodipodi.sourceforge.net/DTD/sodipodi-0.dtd"
   xmlns="http://www.w3.org/2000/svg"
   xmlns:svg="http://www.w3.org/2000/svg">
  <sodipodi:namedview
     id="namedview17"
     pagecolor="#ffffff"
     bordercolor="#666666"
     borderopacity="1.0"
     inkscape:pageshadow="2"
     inkscape:pageopacity="0.0"
     inkscape:pagecheckerboard="0"
     showgrid="false"
     fit-margin-top="0"
     fit-margin-left="0"
     fit-margin-right="0"
     fit-margin-bottom="0"
     inkscape:zoom="1.6725"
     inkscape:cx="14.349776"
     inkscape:cy="98.355755"
     inkscape:window-width="1920"
     inkscape:window-height="1043"
     inkscape:window-x="0"
     inkscape:window-y="0"
     inkscape:window-maximized="1"
     inkscape:current-layer="g12"
     inkscape:showpageshadow="2"
     inkscape:deskcolor="#d1d1d1" />
  <defs
     id="defs4">
    <style
       id="style2">.cls-1{fill:#333;}.cls-2{fill:#369D8F;}</style>
  </defs>
  <g
     id="g10"
     transform="translate(-7.95,-11.26)">
    <g
       id="g12">
      <path
         id="path16"
         class="cls-1"
         d="m 118.02123,167.98612 c -12.86804,0 -23.360441,-10.4924 -23.360441,-23.36044 0,-12.86804 10.492401,-23.36044 23.360441,-23.36044 12.86804,0 23.36044,10.4924 23.36044,23.36044 0,12.86804 -10.4924,23.36044 -23.36044,23.36044 z M 212.51883,11.26 c -20.3249,0 -36.82239,16.497486 -36.82239,36.82239 0,6.862954 1.84772,13.197989 5.14722,18.675154 l -41.83763,41.837626 c -6.20305,-3.62945 -13.39596,-5.67514 -21.05079,-5.67514 -8.18275,0 -15.83759,2.37564 -22.304602,6.46702 L 63.645514,77.513906 c -3.233507,6.401024 -9.898492,10.822351 -17.619315,10.822351 -10.888341,0 -19.730994,-8.842653 -19.730994,-19.730994 0,-10.888341 8.842653,-19.730994 19.730994,-19.730994 10.888341,0 19.401044,8.578693 19.665004,19.203074 L 81.06686,83.453001 c 1.913708,-4.553307 3.035537,-9.568542 3.035537,-14.847738 0,-20.984803 -17.091396,-38.076199 -38.076198,-38.076199 C 25.041396,30.529064 7.95,47.62046 7.95,68.605263 c 0,20.984803 17.091396,38.076197 38.076199,38.076197 6.071075,0 11.87819,-1.45178 17.025406,-4.02539 l 19.665004,19.66501 c -4.091377,6.46701 -6.467015,14.12185 -6.467015,22.3046 0,23.03049 18.741144,41.70565 41.705646,41.70565 22.9645,0 41.70565,-18.74115 41.70565,-41.70565 0,-8.71067 -2.70559,-16.82744 -7.2589,-23.49242 l 55.62953,-55.167595 c -8.05078,-1.979698 -13.98987,-9.238592 -13.98987,-17.883275 0,-10.162452 8.24874,-18.411195 18.47718,-18.411195 10.22844,0 18.4112,8.248743 18.4112,18.411195 0,6.994934 -3.9594,13.131999 -9.70053,16.233526 l -19.07109,19.071095 c 3.2995,0.989849 6.73097,1.517768 10.36042,1.517768 20.25892,0 36.7564,-16.497486 36.7564,-36.756399 0,-20.258914 -16.49748,-36.82239 -36.7564,-36.82239"
         style="stroke-width:6.59899" />
      <path
         id="path18"
         class="cls-2"
         d="m 128.7116,144.03177 c 0,5.74113 -4.68529,10.42641 -10.42641,10.42641 -5.74113,0 -10.42641,-4.68528 -10.42641,-10.42641 0,-5.74112 4.68528,-10.42641 10.42641,-10.42641 5.74112,0 10.42641,4.68529 10.42641,10.42641"
         style="stroke-width:6.59899" />
    </g>
  </g>
</svg>
