<?xml version="1.0" encoding="UTF-8" standalone="no"?>
<svg
   viewBox="0 0 1311.9552 179.76238"
   height="179.76237"
   width="1311.9552"
   xml:space="preserve"
   id="svg2"
   version="1.1"
   sodipodi:docname="logo.svg"
   inkscape:version="1.1.2 (0a00cf5339, 2022-02-04)"
   xmlns:inkscape="http://www.inkscape.org/namespaces/inkscape"
   xmlns:sodipodi="http://sodipodi.sourceforge.net/DTD/sodipodi-0.dtd"
   xmlns="http://www.w3.org/2000/svg"
   xmlns:svg="http://www.w3.org/2000/svg"
   xmlns:rdf="http://www.w3.org/1999/02/22-rdf-syntax-ns#"
   xmlns:cc="http://creativecommons.org/ns#"
   xmlns:dc="http://purl.org/dc/elements/1.1/"><sodipodi:namedview
     id="namedview908"
     pagecolor="#ffffff"
     bordercolor="#666666"
     borderopacity="1.0"
     inkscape:pageshadow="2"
     inkscape:pageopacity="0.0"
     inkscape:pagecheckerboard="0"
     showgrid="false"
     inkscape:zoom="0.72114419"
     inkscape:cx="631.63512"
     inkscape:cy="182.34911"
     inkscape:window-width="1920"
     inkscape:window-height="1016"
     inkscape:window-x="0"
     inkscape:window-y="0"
     inkscape:window-maximized="1"
     inkscape:current-layer="g12" /><metadata
     id="metadata8"><rdf:RDF><cc:Work
         rdf:about=""><dc:format>image/svg+xml</dc:format><dc:type
           rdf:resource="http://purl.org/dc/dcmitype/StillImage" /></cc:Work></rdf:RDF></metadata><defs
     id="defs6" /><g
     transform="matrix(1.3333333,0,0,-1.3333333,-475.21331,998.22585)"
     id="g10"><g
       transform="matrix(0.1,0,0,0.1,122.33899,71.364409)"
       id="g12"><path
         id="path16"
         style="fill:#6bcbba;fill-opacity:1;fill-rule:nonzero;stroke:none"
         d="m 3166.16,5596.65 c -96.79,0 -175.54,78.75 -175.54,175.55 0,96.79 78.75,175.46 175.54,175.46 96.72,0 175.47,-78.67 175.47,-175.46 0,-96.8 -78.75,-175.55 -175.47,-175.55 z m 709.51,1176.4 c -152.42,0 -276.23,-123.9 -276.23,-276.16 0,-51.27 14.07,-99.11 38.4,-140.35 l -313.88,-313.96 c -46.41,27.17 -100.38,42.82 -157.8,42.82 -61.53,0 -118.87,-17.89 -167.31,-48.58 l -240.36,239.02 c -24.41,-48.21 -74.41,-81.37 -132.05,-81.37 -81.59,0 -148,66.4 -148,147.99 0,81.6 66.41,147.92 148,147.92 80.32,0 145.82,-64.22 147.84,-144.02 l 115.28,-115.29 c 14.53,34.21 22.54,71.87 22.54,111.39 0,157.58 -128.16,285.66 -285.66,285.66 -157.5,0 -285.73,-128.08 -285.73,-285.66 0,-157.57 128.23,-285.73 285.73,-285.73 45.81,0 89.16,10.86 127.56,30.17 l 147.54,-147.47 c -30.77,-48.43 -48.66,-105.77 -48.66,-167.23 0,-172.77 140.51,-313.28 313.28,-313.28 172.7,0 313.21,140.51 313.21,313.28 0,65.42 -20.14,126.21 -54.57,176.44 l 417.55,413.88 c -60.41,14.97 -105.17,69.47 -105.17,134.37 0,76.36 62.06,138.42 138.49,138.42 76.28,0 138.33,-62.06 138.33,-138.42 0,-52.62 -29.49,-98.43 -72.76,-121.86 L 3798.11,6231.9 c 24.63,-7.26 50.61,-11.15 77.56,-11.15 152.18,0 276.07,123.81 276.07,276.14 0,152.26 -123.89,276.16 -276.07,276.16" /><path
         id="path18"
         style="fill:#ffffff;fill-opacity:1;fill-rule:nonzero;stroke:none"
         d="m 3246.22,5776.53 c 0,-43.25 -35.05,-78.3 -78.29,-78.3 -43.25,0 -78.3,35.05 -78.3,78.3 0,43.24 35.05,78.29 78.3,78.29 43.24,0 78.29,-35.05 78.29,-78.29" /><path
         id="path20"
         style="fill:#ffffff;fill-opacity:1;fill-rule:nonzero;stroke:none;stroke-width:1.47496748"
         d="M 4765.0932,6746.9782 V 5439.744 H 4423.83 v 1307.2342 h 341.2632" /><path
         id="path22"
         style="fill:#ffffff;fill-opacity:1;fill-rule:nonzero;stroke:none;stroke-width:1.47496748"
         d="m 6053.7576,5439.744 -339.39,505.3681 L 5546.531,5758.632 V 5439.744 H 5205.2678 V 6746.9782 H 5546.531 V 6198.718 l 490.4414,548.2602 h 395.3356 l -484.8366,-540.7968 514.6752,-766.4374 h -408.389" /><path
         id="path24"
         style="fill:#ffffff;fill-opacity:1;fill-rule:nonzero;stroke:none;stroke-width:1.47496748"
         d="m 7088.934,6746.9782 593.0107,-786.9542 v 786.9542 h 317.0148 V 5439.744 h -298.3712 l -592.996,783.2225 V 5439.744 h -318.9027 v 1307.2342 h 300.2444" /><path
         id="path26"
         style="fill:#ffffff;fill-opacity:1;fill-rule:nonzero;stroke:none;stroke-width:1.47496748"
         d="M 9216.7074,6747.0962 H 8866.4763 L 8305.2365,5439.744 h 350.2457 l 376.7952,958.5076 369.3319,-958.5076 h 363.7417 l -548.6436,1307.3522" /><path
         id="path28"
         style="fill:#ffffff;fill-opacity:1;fill-rule:nonzero;stroke:none;stroke-width:1.47496748"
         d="M 10410.59,6746.9782 V 5439.744 h -341.263 v 1307.2342 h 341.263" /><path
         id="path30"
         style="fill:#ffffff;fill-opacity:1;fill-rule:nonzero;stroke:none;stroke-width:1.47496748"
         d="m 11117.439,6092.4319 c 0,-212.5871 165.978,-376.692 359.907,-376.692 195.816,0 352.458,164.1049 352.458,376.692 0,212.587 -156.642,372.9603 -352.458,372.9603 -195.802,0 -359.907,-160.3733 -359.907,-372.9603 z m 1062.935,1.8584 c 0,-382.282 -302.088,-669.4582 -706.76,-669.4582 -404.657,0 -706.76,287.1762 -706.76,669.4582 0,380.4237 302.103,662.0097 706.76,662.0097 404.672,0 706.76,-283.4445 706.76,-662.0097" /></g></g></svg>
