<?xml version="1.0" encoding="UTF-8" standalone="no"?>
<svg
   id="Layer_1"
   viewBox="0 0 195.98678 26.813317"
   version="1.1"
   sodipodi:docname="logo_light.svg"
   width="195.98677"
   height="26.813316"
   inkscape:version="1.3.2 (091e20ef0f, 2023-11-25)"
   xmlns:inkscape="http://www.inkscape.org/namespaces/inkscape"
   xmlns:sodipodi="http://sodipodi.sourceforge.net/DTD/sodipodi-0.dtd"
   xmlns="http://www.w3.org/2000/svg"
   xmlns:svg="http://www.w3.org/2000/svg">
  <sodipodi:namedview
     id="namedview17"
     pagecolor="#ffffff"
     bordercolor="#666666"
     borderopacity="1.0"
     inkscape:pageshadow="2"
     inkscape:pageopacity="0.0"
     inkscape:pagecheckerboard="0"
     showgrid="false"
     fit-margin-top="0"
     fit-margin-left="0"
     fit-margin-right="0"
     fit-margin-bottom="0"
     inkscape:zoom="1.6725"
     inkscape:cx="-110.3139"
     inkscape:cy="98.355755"
     inkscape:window-width="1920"
     inkscape:window-height="1043"
     inkscape:window-x="0"
     inkscape:window-y="0"
     inkscape:window-maximized="1"
     inkscape:current-layer="g12"
     inkscape:showpageshadow="2"
     inkscape:deskcolor="#d1d1d1" />
  <defs
     id="defs4">
    <style
       id="style2">.cls-1{fill:#333;}.cls-2{fill:#369D8F;}</style>
  </defs>
  <g
     id="g10"
     transform="translate(-7.95,-11.26)">
    <g
       id="g12">
      <path
         id="path16"
         class="cls-1"
         d="m 24.63,35.01 c -1.95,0 -3.54,-1.59 -3.54,-3.54 0,-1.95 1.59,-3.54 3.54,-3.54 1.95,0 3.54,1.59 3.54,3.54 0,1.95 -1.59,3.54 -3.54,3.54 z M 38.95,11.26 c -3.08,0 -5.58,2.5 -5.58,5.58 0,1.04 0.28,2 0.78,2.83 l -6.34,6.34 c -0.94,-0.55 -2.03,-0.86 -3.19,-0.86 -1.24,0 -2.4,0.36 -3.38,0.98 L 16.39,21.3 c -0.49,0.97 -1.5,1.64 -2.67,1.64 -1.65,0 -2.99,-1.34 -2.99,-2.99 0,-1.65 1.34,-2.99 2.99,-2.99 1.65,0 2.94,1.3 2.98,2.91 l 2.33,2.33 c 0.29,-0.69 0.46,-1.45 0.46,-2.25 0,-3.18 -2.59,-5.77 -5.77,-5.77 -3.18,0 -5.77,2.59 -5.77,5.77 0,3.18 2.59,5.77 5.77,5.77 0.92,0 1.8,-0.22 2.58,-0.61 l 2.98,2.98 c -0.62,0.98 -0.98,2.14 -0.98,3.38 0,3.49 2.84,6.32 6.32,6.32 3.48,0 6.32,-2.84 6.32,-6.32 0,-1.32 -0.41,-2.55 -1.1,-3.56 l 8.43,-8.36 c -1.22,-0.3 -2.12,-1.4 -2.12,-2.71 0,-1.54 1.25,-2.79 2.8,-2.79 1.55,0 2.79,1.25 2.79,2.79 0,1.06 -0.6,1.99 -1.47,2.46 l -2.89,2.89 c 0.5,0.15 1.02,0.23 1.57,0.23 3.07,0 5.57,-2.5 5.57,-5.57 0,-3.07 -2.5,-5.58 -5.57,-5.58" />
      <path
         id="path18"
         class="cls-2"
         d="m 26.25,31.38 c 0,0.87 -0.71,1.58 -1.58,1.58 -0.87,0 -1.58,-0.71 -1.58,-1.58 0,-0.87 0.71,-1.58 1.58,-1.58 0.87,0 1.58,0.71 1.58,1.58" />
      <path
         id="path20"
         class="cls-1"
         d="M 56.789114,11.834937 V 37.772464 H 50.02 V 11.834937 h 6.769114"
         style="stroke-width:1.07446" />
      <path
         id="path22"
         class="cls-1"
         d="m 82.361324,37.783209 -6.73688,-10.024736 -3.330834,3.696151 v 6.328585 H 65.524496 V 11.834937 h 6.769114 v 10.884306 l 9.734631,-10.884306 h 7.843577 l -9.616439,10.733881 10.218139,15.214391 h -8.101449"
         style="stroke-width:1.07446" />
      <path
         id="path24"
         class="cls-1"
         d="m 102.90505,11.834937 11.76536,15.611942 V 11.834937 h 6.28561 v 25.937527 h -5.92028 L 103.27036,22.22499 V 37.772464 H 96.941782 V 11.834937 h 5.963268"
         style="stroke-width:1.07446" />
      <path
         id="path26"
         class="cls-1"
         d="m 145.13143,11.834937 h -6.95177 l -11.14218,25.948272 h 6.95177 l 7.47826,-19.017989 7.32783,19.017989 h 7.22039 l -10.8843,-25.948272"
         style="stroke-width:1.07446" />
      <path
         id="path28"
         class="cls-1"
         d="m 168.82333,11.834937 v 25.937527 h -6.76911 V 11.834937 h 6.76911"
         style="stroke-width:1.07446" />
      <path
         id="path30"
         class="cls-1"
         d="m 182.84507,24.825189 c 0,4.222639 3.2986,7.478261 7.14517,7.478261 3.84658,0 6.99476,-3.255622 6.99476,-7.478261 0,-4.222638 -3.1052,-7.403047 -6.99476,-7.403047 -3.88955,0 -7.14517,3.180409 -7.14517,7.403047 z m 21.0917,-0.03223 c 0,7.585706 -5.9955,13.280358 -14.02174,13.280358 -8.02624,0 -14.02173,-5.694652 -14.02173,-13.280358 0,-7.585706 5.99549,-13.140678 14.02173,-13.140678 8.02624,0 14.02174,5.61944 14.02174,13.140678"
         style="stroke-width:1.07446" />
    </g>
  </g>
</svg>
