<?xml version="1.0" encoding="UTF-8" standalone="no"?>
<!-- Generator: Adobe Illustrator 22.0.0, SVG Export Plug-In . SVG Version: 6.00 Build 0)  -->

<svg
   xmlns:dc="http://purl.org/dc/elements/1.1/"
   xmlns:cc="http://creativecommons.org/ns#"
   xmlns:rdf="http://www.w3.org/1999/02/22-rdf-syntax-ns#"
   xmlns:svg="http://www.w3.org/2000/svg"
   xmlns="http://www.w3.org/2000/svg"
   xmlns:sodipodi="http://sodipodi.sourceforge.net/DTD/sodipodi-0.dtd"
   xmlns:inkscape="http://www.inkscape.org/namespaces/inkscape"
   version="1.1"
   id="Layer_1"
   x="0px"
   y="0px"
   viewBox="0 0 442.37306 72.637871"
   xml:space="preserve"
   sodipodi:docname="logo.svg"
   inkscape:version="0.92.3 (unknown)"
   width="442.37305"
   height="72.637871"><metadata
     id="metadata55"><rdf:RDF><cc:Work
         rdf:about=""><dc:format>image/svg+xml</dc:format><dc:type
           rdf:resource="http://purl.org/dc/dcmitype/StillImage" /><dc:title></dc:title></cc:Work></rdf:RDF></metadata><defs
     id="defs53" /><sodipodi:namedview
     pagecolor="#ffffff"
     bordercolor="#666666"
     borderopacity="1"
     objecttolerance="10"
     gridtolerance="10"
     guidetolerance="10"
     inkscape:pageopacity="0"
     inkscape:pageshadow="2"
     inkscape:window-width="1855"
     inkscape:window-height="1056"
     id="namedview51"
     showgrid="false"
     inkscape:zoom="0.98277915"
     inkscape:cx="167.1992"
     inkscape:cy="19.073057"
     inkscape:window-x="65"
     inkscape:window-y="24"
     inkscape:window-maximized="1"
     inkscape:current-layer="g3854"
     fit-margin-top="0"
     fit-margin-left="0"
     fit-margin-right="0"
     fit-margin-bottom="0" /><style
     type="text/css"
     id="style2">
	.st0{fill:#57B4DF;}
	.st1{fill:#F8B13B;}
	.st2{fill:none;stroke:#57B4DF;stroke-width:3;stroke-miterlimit:10;}
	.st3{fill:none;stroke:#57B4DF;stroke-width:6.8466;stroke-linecap:round;stroke-linejoin:round;stroke-miterlimit:10;}
  .turk1-fill{fill:#6bc2c2}
  .turk2-fill{fill:#71a1a5}
  .turk3-fill{fill:#71858a}
  .turk4-fill{fill: #c0e2e1}
  .turk5-fill{fill: #d2eced}
  .turk6-fill{fill: #cee8e8}
  .turk7-fill{fill: #709397}
  .turk8-fill{fill: #70989b}
  .turk1-stroke{stroke:#6bc2c2}
  .turk2-stroke{stroke:#71a1a5}
  .turk3-stroke{stroke:#71858a}
  .turk4-stroke{stroke: #c0e2e1}
  .turk5-stroke{stroke: #d2eced}
  .turk6-stroke{stroke: #cee8e8}
  .turk7-stroke{stroke: #709397}
  .turk8-stroke{stroke: #70989b}
</style><style
     id="style3586"
     type="text/css">
	.st0{fill:#F8B13B;}
	.st1{fill:#57B4DF;}
	.st2{fill:none;stroke:#57B4DF;stroke-width:3;stroke-miterlimit:10;}
	.st3{fill:none;stroke:#57B4DF;stroke-width:6.8466;stroke-linecap:round;stroke-linejoin:round;stroke-miterlimit:10;}
</style><g
     id="g3854"
     transform="translate(-123.81838,-88.128358)"><g
       id="g3676"><circle
         class="st0"
         cx="197.24477"
         cy="30.472101"
         r="3.4000001"
         id="circle30"
         style="fill:#57b4df"
         transform="rotate(30)" /><circle
         class="st0"
         cx="198.14478"
         cy="30.472101"
         r="4.4000001"
         id="circle40"
         style="fill:#57b4df"
         transform="rotate(30)" /><circle
         class="st2"
         cx="198.14478"
         cy="30.472101"
         r="7.5999999"
         id="circle38"
         style="fill:#ffffff;fill-opacity:1;stroke:#57b4df;stroke-width:3;stroke-miterlimit:10;stroke-dasharray:none;stroke-opacity:1"
         transform="rotate(30)" /><circle
         style="fill:#f8b13b;fill-opacity:1"
         id="circle868"
         r="3.2150571"
         cy="30.472101"
         cx="198.14478"
         class="st0"
         transform="rotate(30)" /><g
         id="g1689"><polyline
           style="fill:none;stroke:#71a1a5;stroke-width:6.84660006;stroke-linecap:round;stroke-linejoin:round;stroke-miterlimit:10;stroke-opacity:1"
           transform="rotate(30,145.68246,161.12501)"
           id="polyline48"
           points="122.2,150.5 149.9,150.5 164.4,124.9 136.2,124.9 108,125.2 "
           class="st3" /><polyline
           class="st3"
           points="149.9,99.4 122.7,99.4 108,125.2 "
           id="polyline866"
           transform="rotate(30,145.68246,161.12501)"
           style="fill:none;stroke:#71a1a5;stroke-width:6.84660006;stroke-linecap:round;stroke-linejoin:round;stroke-miterlimit:10;stroke-opacity:1" /><circle
           class="st2"
           cx="198.14478"
           cy="30.472101"
           r="7.5999999"
           id="circle1563"
           style="fill:#ffffff;fill-opacity:1;stroke:#71a1a5;stroke-width:3;stroke-miterlimit:10;stroke-dasharray:none;stroke-opacity:1"
           transform="rotate(30)" /></g><circle
         transform="rotate(30)"
         class="st0"
         cx="198.14478"
         cy="30.472101"
         r="3.2150571"
         id="circle1565"
         style="fill:#cc6a42;fill-opacity:1" /><g
         id="g1697"><circle
           transform="rotate(30)"
           style="fill:#71a1a5;fill-opacity:1"
           id="circle32"
           r="7.5999999"
           cy="30.472101"
           cx="223.44476"
           class="st0" /><circle
           transform="rotate(30)"
           style="fill:#71a1a5;fill-opacity:1"
           id="circle34"
           r="7.5999999"
           cy="4.9721169"
           cx="210.94476"
           class="st0" /><circle
           transform="rotate(30)"
           style="fill:#71a1a5;fill-opacity:1"
           id="circle36"
           r="7.5999999"
           cy="4.9721169"
           cx="182.84476"
           class="st0" /><circle
           transform="rotate(30)"
           style="fill:#71a1a5;fill-opacity:1"
           id="circle42"
           r="7.5999999"
           cy="55.072109"
           cx="210.94476"
           class="st0" /><circle
           transform="rotate(30)"
           style="fill:#71a1a5;fill-opacity:1"
           id="circle44"
           r="7.5999999"
           cy="55.072109"
           cx="183.54477"
           class="st0" /><circle
           transform="rotate(30)"
           style="fill:#71a1a5;fill-opacity:1"
           id="circle46"
           r="7.5999999"
           cy="30.472101"
           cx="170.44478"
           class="st0" /></g></g><path
       sodipodi:nodetypes="cccssscccsscccc"
       style="fill:#6bc2c2;fill-opacity:1;stroke-width:1.41344488"
       inkscape:connector-curvature="0"
       class="st1"
       d="m 232.4771,127.55497 v -5.51243 h 19.22285 c 1.13075,12.43831 -6.78454,21.48436 -18.79882,21.48436 -11.4489,0 -19.78823,-7.91529 -19.78823,-19.08151 0,-11.16621 8.33933,-19.0815 19.78823,-19.0815 6.78453,0 13.96705,3.4307 16.93529,8.23641 0.67416,1.25843 1.19394,2.40465 1.79776,4.34325 h -9.54566 c -1.2721,-2.96824 -4.94706,-5.0884 -9.18739,-5.0884 -6.3605,0 -10.88353,4.66436 -10.88353,11.4489 0,6.78454 4.52303,11.30756 10.88353,11.4489 5.79512,0 10.03546,-3.39226 10.31815,-8.33932 H 232.4771 Z"
       id="path3610" /><path
       style="fill:#6bc2c2;fill-opacity:1;stroke-width:1.41344488"
       inkscape:connector-curvature="0"
       class="st1"
       d="m 289.29758,118.93296 c 0,4.66437 -2.96823,8.48067 -7.34991,10.03546 l 6.21916,9.89411 v 3.53362 h -7.63261 l -7.20857,-12.01429 h -6.92588 v 12.01429 h -8.9047 v -35.61882 h 17.66806 c 8.33933,0 14.13445,4.94706 14.13445,12.15563 z m -22.75646,5.22975 h 6.92588 c 3.8163,0 6.78453,-2.12017 6.78453,-5.3711 0,-3.39226 -2.96823,-5.37109 -6.78453,-5.37109 h -6.92588 z"
       id="path3612" /><path
       style="fill:#6bc2c2;fill-opacity:1;stroke-width:1.41344488"
       inkscape:connector-curvature="0"
       class="st1"
       d="m 315.16362,106.77733 10.17681,30.8131 v 4.80572 h -7.77395 l -1.83748,-5.79513 h -14.13445 l -1.83748,5.79513 h -7.77394 v -4.80572 l 10.1768,-30.8131 z m -11.73159,23.46319 h 10.60084 l -5.37109,-15.97193 z"
       id="path3614" /><path
       style="fill:#6bc2c2;fill-opacity:1;stroke-width:1.41344488"
       inkscape:connector-curvature="0"
       class="st1"
       d="m 339.33353,132.36069 v 10.03546 h -8.62201 v -35.61882 h 16.25462 c 8.62201,0 14.69982,5.22975 14.69982,12.72101 0,7.49126 -6.07781,12.721 -14.84117,12.721 h -7.49126 z m 0,-18.94017 v 12.29697 H 345.27 c 4.38168,0 7.49126,-2.5442 7.49126,-6.07781 0,-3.67496 -3.10958,-6.07781 -7.49126,-6.07781 h -5.93647 z"
       id="path3616" /><path
       style="fill:#6bc2c2;fill-opacity:1;stroke-width:1.41344488"
       inkscape:connector-curvature="0"
       class="st1"
       d="m 375.65907,120.48775 h 14.13445 v -13.56907 h 8.9047 v 35.61881 h -8.9047 v -14.84117 h -14.13445 v 14.84117 h -8.90471 v -35.61881 h 8.90471 z"
       id="path3618" /><path
       style="fill:#71858a;fill-opacity:1;stroke-width:1.41344488"
       inkscape:connector-curvature="0"
       class="st0"
       d="m 405.05872,134.33951 v -1.69614 h 3.10958 c 0.42403,4.66437 4.80571,7.9153 10.74218,7.9153 6.21916,0 10.74218,-3.25093 10.74218,-7.9153 0,-11.16621 -24.59394,-1.69613 -24.59394,-16.11327 0,-6.21915 5.22975,-10.60083 13.0037,-10.60083 6.92588,0 12.43831,3.39226 13.42772,8.33932 v 1.69613 h -2.96823 c -0.28269,-4.09899 -4.52303,-7.06722 -10.31815,-7.06722 -5.79512,0 -9.75277,2.96823 -9.75277,7.34991 0,11.30756 24.59394,1.97883 24.59394,15.97193 0,6.64319 -5.79512,11.30756 -13.85176,11.30756 -7.20857,0.14135 -13.00369,-3.67496 -14.13445,-9.18739 z"
       id="path3620" /><path
       style="fill:#71858a;fill-opacity:1;stroke-width:1.41344488"
       inkscape:connector-curvature="0"
       class="st0"
       d="m 439.68812,142.39615 v -35.05344 h 23.88722 v 2.96824 h -20.63629 v 12.43831 h 18.65747 v 2.82689 h -18.65747 v 13.71042 h 21.06033 v 2.96823 h -24.31126 z"
       id="path3622" /><path
       style="fill:#71858a;fill-opacity:1;stroke-width:1.41344488"
       inkscape:connector-curvature="0"
       class="st0"
       d="m 500.32491,142.39615 h -3.95765 l -22.47377,-31.09579 v 31.09579 h -3.10958 v -35.05344 h 3.95765 l 22.33243,31.09579 v -31.09579 h 3.25092 z"
       id="path3624" /><path
       style="fill:#71858a;fill-opacity:1;stroke-width:1.41344488"
       inkscape:connector-curvature="0"
       class="st0"
       d="m 507.25079,134.33951 v -1.69614 h 3.10958 c 0.42403,4.66437 4.80571,7.9153 10.74218,7.9153 6.21916,0 10.74218,-3.25093 10.74218,-7.9153 0,-11.16621 -24.59394,-1.69613 -24.59394,-16.11327 0,-6.21915 5.22975,-10.60083 13.00369,-10.60083 6.92588,0 12.43832,3.39226 13.42773,8.33932 v 1.69613 h -2.96823 c -0.28269,-4.09899 -4.52303,-7.06722 -10.31815,-7.06722 -5.79513,0 -9.75277,2.96823 -9.75277,7.34991 0,11.30756 24.59394,1.97883 24.59394,15.97193 0,6.64319 -5.79512,11.30756 -13.85176,11.30756 -7.20857,0.14135 -13.00369,-3.67496 -14.13445,-9.18739 z"
       id="path3626" /><path
       style="fill:#71858a;fill-opacity:1;stroke-width:1.41344488"
       inkscape:connector-curvature="0"
       class="st0"
       d="m 541.88019,142.39615 v -35.05344 h 23.88722 v 2.96824 h -20.6363 v 12.43831 h 18.65748 v 2.82689 h -18.65748 v 13.71042 h 21.06033 v 2.96823 h -24.31125 z"
       id="path3628" /></g></svg>