<?xml version="1.0" encoding="UTF-8" standalone="no"?>
<svg
   xmlns:dc="http://purl.org/dc/elements/1.1/"
   xmlns:cc="http://creativecommons.org/ns#"
   xmlns:rdf="http://www.w3.org/1999/02/22-rdf-syntax-ns#"
   xmlns:svg="http://www.w3.org/2000/svg"
   xmlns="http://www.w3.org/2000/svg"
   xmlns:sodipodi="http://sodipodi.sourceforge.net/DTD/sodipodi-0.dtd"
   xmlns:inkscape="http://www.inkscape.org/namespaces/inkscape"
   viewBox="0 0 921.3 922"
   width="2498"
   height="2500"
   version="1.1"
   id="svg2682"
   sodipodi:docname="zcash.svg"
   inkscape:version="0.92.3 (unknown)">
  <metadata
     id="metadata2688">
    <rdf:RDF>
      <cc:Work
         rdf:about="">
        <dc:format>image/svg+xml</dc:format>
        <dc:type
           rdf:resource="http://purl.org/dc/dcmitype/StillImage" />
        <dc:title></dc:title>
      </cc:Work>
    </rdf:RDF>
  </metadata>
  <defs
     id="defs2686" />
  <sodipodi:namedview
     pagecolor="#ffffff"
     bordercolor="#666666"
     borderopacity="1"
     objecttolerance="10"
     gridtolerance="10"
     guidetolerance="10"
     inkscape:pageopacity="0"
     inkscape:pageshadow="2"
     inkscape:window-width="1441"
     inkscape:window-height="825"
     id="namedview2684"
     showgrid="false"
     inkscape:zoom="0.13350176"
     inkscape:cx="2093.7464"
     inkscape:cy="2840.0458"
     inkscape:window-x="65"
     inkscape:window-y="24"
     inkscape:window-maximized="0"
     inkscape:current-layer="svg2682" />
  <path
     d="M 460.7,921.7 C 398.5,921.7 338.2,909.5 281.4,885.5 226.5,862.3 177.3,829.1 135,786.8 92.7,744.5 59.5,695.2 36.3,640.4 12.2,583.5 0,523.2 0,461 0,398.8 12.2,338.5 36.2,281.7 59.4,226.8 92.6,177.6 134.9,135.3 177.2,93 226.5,59.8 281.3,36.6 338.1,12.6 398.5,0.4 460.6,0.4 c 62.1,0 122.6,12.1 179.4,36.1 54.9,23.2 104.1,56.4 146.4,98.7 42.3,42.3 75.5,91.6 98.7,146.4 24,56.8 36.2,117.2 36.2,179.3 0,62.2 -12.2,122.5 -36.2,179.3 -23.2,54.9 -56.4,104.1 -98.7,146.4 -42.3,42.3 -91.6,75.5 -146.4,98.7 -56.8,24.2 -117.1,36.4 -179.3,36.4 z"
     id="path2678"
     inkscape:connector-curvature="0"
     sodipodi:nodetypes="scscscscscscscscs"
     style="fill:#000000;fill-opacity:0.04705882" />
  <path
     d="M433 575.7h199.6V676H509.7c2 28.7 3.1 55.3 5.1 83.9H411.4V677H288.5c0-32.8-4.1-65.5 2-96.2 3.1-16.4 21.5-30.7 32.8-45 38.9-46.1 77.8-91.1 117.7-137.2 15.4-17.4 30.7-33.8 48.1-53.2H297.7V245.1h113.6v-83.9h99.3v81.9h123.9c0 33.8 4.1 66.5-2 97.3-3.1 16.4-21.5 30.7-33.8 45-38.9 46.1-77.8 91.1-117.7 137.2-15.2 18.3-30.5 34.6-48 53.1z"
     id="path2680"
     style="fill:#ffffff;fill-opacity:0.99607843" />
</svg>
